<?xml version="1.0" encoding="UTF-8"?>
<svg id="Layer_1" data-name="Layer 1" xmlns="http://www.w3.org/2000/svg" xmlns:xlink="http://www.w3.org/1999/xlink" version="1.1" viewBox="0 0 128 128">
  <defs>
    <style>
      .cls-1 {
        clip-path: url(#clippath);
      }

      .cls-2 {
        fill: none;
      }

      .cls-2, .cls-3, .cls-4, .cls-5, .cls-6, .cls-7, .cls-8, .cls-9, .cls-10, .cls-11 {
        stroke-width: 0px;
      }

      .cls-3 {
        fill: #ffcb00;
      }

      .cls-4 {
        fill: url(#linear-gradient);
      }

      .cls-12 {
        clip-path: url(#clippath-1);
      }

      .cls-13 {
        clip-path: url(#clippath-3);
      }

      .cls-14 {
        clip-path: url(#clippath-2);
      }

      .cls-5 {
        fill: #dfdfdf;
      }

      .cls-15 {
        fill: #363d52;
        stroke: #212532;
        stroke-width: 4px;
      }

      .cls-6 {
        fill: #9f9f9f;
      }

      .cls-7 {
        fill: url(#linear-gradient-4);
      }

      .cls-8 {
        fill: url(#linear-gradient-2);
      }

      .cls-9 {
        fill: url(#linear-gradient-3);
      }

      .cls-10 {
        fill: #fff;
      }

      .cls-11 {
        fill: #a00500;
      }
    </style>
    <clipPath id="clippath">
      <path class="cls-2" d="M62.7,68.7s-11.3-13.4-10.9-28.5c0,0-1.6,4.3,0,10.9,0,0-6.9-17.3,4.5-30.5,0,0,1.3-8.4,7.3-11.1,0,0,2.2.8,3.5,3.5,0,0,14.9-.2,17.6,13.8l7.8,3s1,8.7-12.9,9.4c0,0,4.1,5.3,13,10.2,8.9,4.9,22.6,16.2,18.9,42.6-3.1,22.2-34.8,31.3-60.4,23.7-13.9-4.1-26-13.1-30.8-27.7-7.5-23,7.9-48.8,6.2-54.9,26.6,3.7,20.2,39.1,36.4,55.4,4.9,4.3,10.1,7.2,14.1,9l-1.8-8.6-1.5,3.6s-5.7-1.9-10.9-7.6l-.2-16.2Z"/>
    </clipPath>
    <linearGradient id="linear-gradient" x1="116.7" y1="122.8" x2="8.8" y2="-13.3" gradientTransform="translate(0 10)" gradientUnits="userSpaceOnUse">
      <stop offset="0" stop-color="red"/>
      <stop offset="1" stop-color="#ff0"/>
    </linearGradient>
    <clipPath id="clippath-1">
      <path class="cls-2" d="M63.7,9.4c3.3,1.4,5.3,6.3,5.7,10.1l-2.5-1.8-2.7,1.9-2,5-4.2-3c1.1-10,5.8-12.2,5.8-12.2Z"/>
    </clipPath>
    <linearGradient id="linear-gradient-2" x1="74.9" y1="13.5" x2="50.4" y2="-.6" gradientTransform="translate(0 10)" gradientUnits="userSpaceOnUse">
      <stop offset="0" stop-color="#a00500"/>
      <stop offset="1" stop-color="#f60"/>
    </linearGradient>
    <clipPath id="clippath-2">
      <polygon class="cls-2" points="74.5 25.6 78.6 28.8 74.2 29.9 75.7 28.1 74.5 25.6"/>
    </clipPath>
    <linearGradient id="linear-gradient-3" x1="78.7" y1="18.9" x2="71" y2="14.9" xlink:href="#linear-gradient-2"/>
    <clipPath id="clippath-3">
      <path class="cls-2" d="M69.3,12.4s2.4.1,4.5,1c0,0-.2-3-1.6-4.2-2,.9-2.9,3.2-2.9,3.2Z"/>
    </clipPath>
    <linearGradient id="linear-gradient-4" x1="75.1" y1="4.2" x2="67.5" y2="-2" xlink:href="#linear-gradient-2"/>
  </defs>
  <rect class="cls-15" x="2" y="2" width="124" height="124" rx="14" ry="14"/>
  <g>
    <g class="cls-1">
      <rect class="cls-4" x="12.8" y="9.4" width="102.4" height="113.7"/>
    </g>
    <path class="cls-3" d="M69.9,82.9l3.1-17.4s-4.1-4.5-4.9-11.5c-.2,3.8,1,8.4,3.4,13.3-3-.1-4.8-1.7-5.9-3.8.8,6.6,7,3.8,4.4,19.4"/>
    <path class="cls-11" d="M93.1,49.5c8.9,5,22,16.4,18.4,42.3,0,.4-.1.8-.2,1.2,0,0,0-32.5-18.2-43.5M91.8,48.7h0Z"/>
    <path class="cls-11" d="M86.6,37.7c-1.8.7-4,1.2-7,1.3,0,0,1.4,1.8,4.4,4.3-16.6-1.4-19.2,10-12.6,23.9-11.7-.6-6.2-22.2-6.2-22.2,0,0,1-.8,2.2-1.7,1.7-2.8,4-4.6,4-4.6,0,0,12.5-3.1,12.8-3.1,0,0,1.1.8,2.4,2"/>
    <path class="cls-11" d="M111.3,93c-4,21.3-35.1,30-60.3,22.6-13.9-4.1-26-13.1-30.8-27.7-.5-1.4-.8-2.8-1.1-4.2.8-2.7,1.1-4.3,1.6-4.7s6.8,6.2,6.8,6.2c8.6,22.3,42.7,37.9,75.4,17.9-6,6.1-18.5,9.6-18.5,9.6,22.4-2.9,26.7-18.9,26.9-19.8"/>
    <path class="cls-3" d="M54.9,55.5c-1.8-4.5-3.3-9.8-3.1-15.3,0,0-1.6,4.3,0,10.9,0,0-6.9-17.3,4.5-30.5,0,0,1.3-8.4,7.3-11.1,0,0,0,0,0,0h0s-3.4,8.5-5.8,12.2c-6.7,12-5.9,23.7-3,33.8"/>
    <path class="cls-3" d="M67.1,12.9s14.9-.2,17.6,13.8l7.8,3h0l-12.3-2.3,2.4-1s-2.2-11.5-15.4-13.5"/>
    <g class="cls-12">
      <rect class="cls-8" x="57.9" y="9.4" width="11.4" height="15.2"/>
    </g>
    <path class="cls-6" d="M61.6,117.7c-3.5-.4-7.1-1.1-10.5-2.1-13.9-4.1-26-13.1-30.8-27.7-7.5-23,7.9-48.8,6.2-54.9,26.6,3.7,20.2,39.1,36.4,55.4,4.8,4.3,10,7.1,14,8.9-22.7-7-26.1-22.5-26.1-22.5-.2,11.8,6.8,22,6.8,22-23-8.8-19.9-30.4-19.9-30.4-6.6,20.7,6,36.3,6,36.3-11-7.1-16.1-17.6-16.1-17.6,3.9,25.6,32.9,32.3,33.9,32.5"/>
    <path class="cls-5" d="M22.4,93c-.8-1.6-1.5-3.3-2.1-5.1-7.5-23,7.9-48.8,6.2-54.9,18.6,6.5,9.1,33.7,17.8,49.9-1.1-7.5-.1-14.3-.1-14.3,2.4,21.3,13.5,28.4,13.5,28.4-23-8.8-19.9-30.4-19.9-30.4-5.1,15.8,2.8,31.1,6,36.3-.9-.2-3.5-2.9-4.4-3.2-8-6.7-11.8-14.3-11.8-14.3.7,4.4,2.1,8.3,4,11.7-3.2-1.3-6.4-2.6-9.3-3.9"/>
    <path class="cls-10" d="M61.6,117.7c-3.5-.4-7.1-1.1-10.5-2.1-31.9-9.4-40-39-33.4-69,0,0-.3,10,1.1,19,2.1-15.3,8.8-28.5,7.7-32.6,6.4,9.5-9.3,34.2,4.5,56.2,0,0-5.4-15.3,1.4-31.1-1,11.1-.3,30.3,9.5,42.4.6.7,1.2,1.4,1.9,2.1-11-7.1-16.1-17.6-16.1-17.6,3.9,25.6,32.9,32.3,33.9,32.5"/>
    <path class="cls-11" d="M62.8,84.8l-.2-16,4.6,2,1.8,5.5,2.4-9-1.6,15.9,2.8-4.5-1,6.8,3.1-3.7.4,4.8,8-18.2s3.3-5.1,1.5-10.2c0,0,3.1,4.1,2.3,10.6,0,0,12.4-1.7,16.2,7.6,0,0-7.1-7.6-17.6-2.4,0,0,2.8-1.4,7.3-1-13.9,0-17.8,20.9-5.7,24.1,0,0-2.8-2.4-4.1-5.6,4.1,5.6,17.7,5.2,21.7.3,0,0-3.6,8.6-15.7,5.4,0,0,2.8,1.8,4.8,2.2,0,0-7.9,1.5-15.2-3.6,0,0,1.8,2.6,5.2,4.2,0,0-2.8-.8-6.9-2.6l-1.7-8.5-1.5,3.6s-5.7-1.9-10.9-7.6"/>
    <path class="cls-10" d="M92.5,29.7s1,8.7-12.9,9.4c-4.3.5-9,3-12.2,9.6-3.2,6.6-.2,11.7-.2,11.7-1-4.7.4-8.2.4-8.2-1,8.1,3.9,15,3.9,15l-1.1,10.4c-2.7-2.7-6.3-6.4-7.7-9-7.4-13.4.4-24.3.4-24.3-3.1,1.8-4.8,5.3-4.8,5.3,1.3-8.1,8.3-14.9,21.1-14.9,13.2,0,13.2-5.1,13.2-5.1"/>
    <path class="cls-5" d="M92.5,29.7s1,8.7-12.9,9.4c-4.3.5-9,3-12.2,9.6-3.2,6.6-.2,11.7-.2,11.7-1-4.7.4-8.2.4-8.2-1,8.1,3.9,15,3.9,15l-1.1,10.4c-2.7-2.7-6.3-6.4-7.7-9-3.8-6.8-3.6-13-2.6-17.4-.8,12.9,7.5,17.9,7.5,17.9-4.8-5.3-9-21.4.4-27.8-3.4,2.3-4.4,8.8-3.8,9.8,4-11.1,10.3-12.5,19.2-14,8.4-1.5,9-6.8,9-7.4,0,0,0,0,0,0h0Z"/>
    <g class="cls-14">
      <rect class="cls-9" x="74.2" y="25.6" width="4.3" height="4.3"/>
    </g>
    <path class="cls-10" d="M62.2,24.6s-1.1-4.4-.3-8.8c0,0,.3,2.3.9,4,0,0-.7-4.2,1.1-8,0,0,4.4,3.6,5.5,7.8-3.2.8-5.2,2.6-7.2,5.1"/>
    <g class="cls-13">
      <rect class="cls-7" x="69.3" y="9.3" width="4.5" height="4.2"/>
    </g>
    <path class="cls-11" d="M48.4,104.8s15.1,8.5,34.5,5c-14.3.3-20.9-1.2-34.5-5"/>
  </g>
</svg>